<svg width="180" height="180" viewBox="0 0 180 180" fill="none" xmlns="http://www.w3.org/2000/svg">
  <rect width="180" height="180" rx="36" fill="#0F172A" />
  <path
    d="M90 30L135 48V92C135 120 114 140 90 153C66 140 45 120 45 92V48L90 30Z"
    fill="#38BDF8"
  />
  <path
    d="M90 52C74 52 61 65 61 81V99C61 115 74 128 90 128C106 128 119 115 119 99V81C119 65 106 52 90 52ZM90 66C100 66 108 74 108 84V96C108 106 100 114 90 114C80 114 72 106 72 96V84C72 74 80 66 90 66Z"
    fill="#0F172A"
  />
  <circle cx="90" cy="90" r="12" fill="#0F172A" />
  <circle cx="90" cy="90" r="6" fill="#38BDF8" />
</svg>